<svg width="23" height="23" viewBox="0 0 23 23" fill="none" xmlns="http://www.w3.org/2000/svg">
<path d="M15.7407 2.77759H6.48147C5.49919 2.77759 4.55714 3.1678 3.86256 3.86238C3.16798 4.55696 2.77777 5.49901 2.77777 6.48129V15.7405C2.77777 16.7228 3.16798 17.6649 3.86256 18.3595C4.55714 19.054 5.49919 19.4443 6.48147 19.4443H15.7407C16.723 19.4443 17.6651 19.054 18.3596 18.3595C19.0542 17.6649 19.4444 16.7228 19.4444 15.7405V6.48129C19.4444 5.49901 19.0542 4.55696 18.3596 3.86238C17.6651 3.1678 16.723 2.77759 15.7407 2.77759Z" stroke="#FCFCFC" stroke-linejoin="round"/>
<path d="M11.1111 14.8146C12.0934 14.8146 13.0354 14.4244 13.73 13.7298C14.4246 13.0353 14.8148 12.0932 14.8148 11.1109C14.8148 10.1286 14.4246 9.18659 13.73 8.49202C13.0354 7.79744 12.0934 7.40723 11.1111 7.40723C10.1288 7.40723 9.18678 7.79744 8.4922 8.49202C7.79762 9.18659 7.40741 10.1286 7.40741 11.1109C7.40741 12.0932 7.79762 13.0353 8.4922 13.7298C9.18678 14.4244 10.1288 14.8146 11.1111 14.8146Z" stroke="#FCFCFC" stroke-linejoin="round"/>
<path d="M16.2037 6.94426C16.4493 6.94426 16.6848 6.84671 16.8584 6.67306C17.0321 6.49942 17.1296 6.2639 17.1296 6.01833C17.1296 5.77276 17.0321 5.53725 16.8584 5.3636C16.6848 5.18996 16.4493 5.09241 16.2037 5.09241C15.9581 5.09241 15.7226 5.18996 15.549 5.3636C15.3753 5.53725 15.2778 5.77276 15.2778 6.01833C15.2778 6.2639 15.3753 6.49942 15.549 6.67306C15.7226 6.84671 15.9581 6.94426 16.2037 6.94426Z" fill="#FCFCFC"/>
</svg>
