<svg width="20" height="16" viewBox="0 0 20 16" fill="none" xmlns="http://www.w3.org/2000/svg">
<path d="M19.5676 2.23675C18.8607 2.54943 18.111 2.75478 17.3435 2.84601C18.1519 2.36188 18.7567 1.6004 19.0453 0.703419C18.2861 1.15527 17.4537 1.47194 16.587 1.64323C16.0042 1.0197 15.2318 0.606162 14.3897 0.466923C13.5477 0.327684 12.6833 0.47054 11.9308 0.873283C11.1783 1.27603 10.58 1.91609 10.2288 2.69397C9.8776 3.47185 9.79326 4.34396 9.98886 5.17472C8.44899 5.09767 6.94254 4.69761 5.56733 4.00051C4.19212 3.30342 2.9789 2.32487 2.00645 1.12842C1.66228 1.71958 1.48141 2.39159 1.48238 3.07564C1.48238 4.41823 2.16664 5.60434 3.2046 6.29879C2.5898 6.2794 1.98854 6.11337 1.4509 5.81453V5.86175C1.45087 6.75608 1.76019 7.62288 2.32639 8.31515C2.89259 9.00742 3.68082 9.48253 4.55738 9.6599C3.98668 9.81472 3.38821 9.83752 2.80738 9.72657C3.05453 10.4964 3.53628 11.1696 4.18516 11.6519C4.83403 12.1343 5.61753 12.4016 6.4259 12.4164C5.62253 13.0474 4.70265 13.5138 3.71887 13.7889C2.73509 14.0641 1.70672 14.1427 0.692566 14.0201C2.46268 15.1584 4.52322 15.7627 6.62775 15.7608C13.7518 15.7608 17.6463 9.8599 17.6463 4.74231C17.6463 4.57564 17.6426 4.40712 17.6352 4.24138C18.3929 3.69356 19.047 3.01505 19.5666 2.23768" fill="#FCFCFC"/>
</svg>
